<mxfile host="drawio-plugin" modified="2021-11-18T12:41:44.602Z" agent="5.0 (Windows NT 6.2; Win64; x64) AppleWebKit/537.36 (KHTML, like Gecko) Chrome/89.0.4389.114 Safari/537.36" etag="MDcuZTG4MK_BxWxkMsfe" version="14.7.4" type="embed" pages="3"><diagram id="Qp9k4GwFQsT3vv3dEzPT" name="Habit Tracker"><mxGraphModel dx="982" dy="1622" grid="1" gridSize="10" guides="1" tooltips="1" connect="1" arrows="1" fold="1" page="1" pageScale="1" pageWidth="827" pageHeight="1169" background="none" math="0" shadow="0"><root><mxCell id="0"/><mxCell id="1" parent="0"/><mxCell id="lLel2rtWcx4q43UMJfzU-2" value="Habit Tracker" style="swimlane;verticalAlign=middle;swimlaneLine=0;fillColor=none;" parent="1" vertex="1"><mxGeometry x="280" y="-210" width="400" height="410" as="geometry"><mxRectangle x="280" y="-210" width="110" height="23" as="alternateBounds"/></mxGeometry></mxCell><mxCell id="lLel2rtWcx4q43UMJfzU-4" value="create habit" style="ellipse;whiteSpace=wrap;html=1;verticalAlign=middle;fillColor=none;" parent="lLel2rtWcx4q43UMJfzU-2" vertex="1"><mxGeometry x="30" y="120" width="120" height="80" as="geometry"/></mxCell><mxCell id="lLel2rtWcx4q43UMJfzU-5" value="edit habit" style="ellipse;whiteSpace=wrap;html=1;verticalAlign=middle;fillColor=none;" parent="lLel2rtWcx4q43UMJfzU-2" vertex="1"><mxGeometry x="30" y="210" width="120" height="80" as="geometry"/></mxCell><mxCell id="lLel2rtWcx4q43UMJfzU-6" value="check habit" style="ellipse;whiteSpace=wrap;html=1;verticalAlign=middle;fillColor=none;" parent="lLel2rtWcx4q43UMJfzU-2" vertex="1"><mxGeometry x="30" y="300" width="120" height="80" as="geometry"/></mxCell><mxCell id="ghl63SZsgo9a_e7Ybc6T-1" value="Open HabitStats" style="ellipse;whiteSpace=wrap;html=1;verticalAlign=middle;fillColor=none;" parent="lLel2rtWcx4q43UMJfzU-2" vertex="1"><mxGeometry x="30" y="30" width="120" height="80" as="geometry"/></mxCell><mxCell id="ghl63SZsgo9a_e7Ybc6T-2" value="create positive&lt;br&gt;habit" style="ellipse;whiteSpace=wrap;html=1;verticalAlign=middle;fillColor=none;" parent="lLel2rtWcx4q43UMJfzU-2" vertex="1"><mxGeometry x="250" y="30" width="120" height="80" as="geometry"/></mxCell><mxCell id="ghl63SZsgo9a_e7Ybc6T-3" value="create negative&lt;br&gt;habit" style="ellipse;whiteSpace=wrap;html=1;verticalAlign=middle;fillColor=none;" parent="lLel2rtWcx4q43UMJfzU-2" vertex="1"><mxGeometry x="250" y="120" width="120" height="80" as="geometry"/></mxCell><mxCell id="ghl63SZsgo9a_e7Ybc6T-4" value="delete habit" style="ellipse;whiteSpace=wrap;html=1;verticalAlign=middle;fillColor=none;" parent="lLel2rtWcx4q43UMJfzU-2" vertex="1"><mxGeometry x="250" y="210" width="120" height="80" as="geometry"/></mxCell><mxCell id="ghl63SZsgo9a_e7Ybc6T-5" value="remind of&lt;br&gt;habit" style="ellipse;whiteSpace=wrap;html=1;verticalAlign=middle;fillColor=none;" parent="lLel2rtWcx4q43UMJfzU-2" vertex="1"><mxGeometry x="250" y="300" width="120" height="80" as="geometry"/></mxCell><mxCell id="ghl63SZsgo9a_e7Ybc6T-13" value="" style="endArrow=block;html=1;rounded=0;strokeWidth=1;entryX=1;entryY=0.5;entryDx=0;entryDy=0;exitX=0;exitY=0.5;exitDx=0;exitDy=0;edgeStyle=orthogonalEdgeStyle;endFill=0;" parent="lLel2rtWcx4q43UMJfzU-2" source="ghl63SZsgo9a_e7Ybc6T-2" target="lLel2rtWcx4q43UMJfzU-4" edge="1"><mxGeometry width="50" height="50" relative="1" as="geometry"><mxPoint x="230" y="250" as="sourcePoint"/><mxPoint x="280" y="200" as="targetPoint"/></mxGeometry></mxCell><mxCell id="ghl63SZsgo9a_e7Ybc6T-14" value="" style="endArrow=block;html=1;rounded=0;strokeWidth=1;entryX=1;entryY=0.5;entryDx=0;entryDy=0;exitX=0;exitY=0.5;exitDx=0;exitDy=0;edgeStyle=orthogonalEdgeStyle;endFill=0;" parent="lLel2rtWcx4q43UMJfzU-2" source="ghl63SZsgo9a_e7Ybc6T-3" target="lLel2rtWcx4q43UMJfzU-4" edge="1"><mxGeometry width="50" height="50" relative="1" as="geometry"><mxPoint x="230" y="250" as="sourcePoint"/><mxPoint x="280" y="200" as="targetPoint"/></mxGeometry></mxCell><mxCell id="ghl63SZsgo9a_e7Ybc6T-15" value="&amp;lt;&amp;lt;extends&amp;gt;&amp;gt;" style="endArrow=open;html=1;rounded=0;strokeWidth=1;entryX=1;entryY=0.5;entryDx=0;entryDy=0;exitX=0;exitY=0.5;exitDx=0;exitDy=0;dashed=1;endFill=0;" parent="lLel2rtWcx4q43UMJfzU-2" source="ghl63SZsgo9a_e7Ybc6T-4" target="lLel2rtWcx4q43UMJfzU-5" edge="1"><mxGeometry width="50" height="50" relative="1" as="geometry"><mxPoint x="230" y="220" as="sourcePoint"/><mxPoint x="280" y="170" as="targetPoint"/></mxGeometry></mxCell><mxCell id="ghl63SZsgo9a_e7Ybc6T-18" value="&amp;lt;&amp;lt;extends&amp;gt;&amp;gt;" style="endArrow=open;html=1;rounded=0;dashed=1;strokeWidth=1;entryX=1;entryY=0.5;entryDx=0;entryDy=0;exitX=0;exitY=0.5;exitDx=0;exitDy=0;endFill=0;" parent="lLel2rtWcx4q43UMJfzU-2" source="ghl63SZsgo9a_e7Ybc6T-5" target="lLel2rtWcx4q43UMJfzU-6" edge="1"><mxGeometry width="50" height="50" relative="1" as="geometry"><mxPoint x="230" y="220" as="sourcePoint"/><mxPoint x="280" y="170" as="targetPoint"/></mxGeometry></mxCell><mxCell id="ghl63SZsgo9a_e7Ybc6T-8" value="" style="edgeStyle=none;rounded=0;orthogonalLoop=1;jettySize=auto;html=1;endArrow=none;endFill=0;strokeWidth=1;entryX=0;entryY=0.5;entryDx=0;entryDy=0;exitX=1;exitY=0.3333333333333333;exitDx=0;exitDy=0;exitPerimeter=0;" parent="1" source="lLel2rtWcx4q43UMJfzU-3" target="lLel2rtWcx4q43UMJfzU-5" edge="1"><mxGeometry relative="1" as="geometry"><mxPoint x="150" y="30" as="sourcePoint"/><mxPoint x="250" y="160" as="targetPoint"/></mxGeometry></mxCell><mxCell id="lLel2rtWcx4q43UMJfzU-3" value="User" style="shape=umlActor;verticalLabelPosition=bottom;verticalAlign=top;html=1;outlineConnect=0;fillColor=none;" parent="1" vertex="1"><mxGeometry x="210" y="-20" width="30" height="60" as="geometry"/></mxCell><mxCell id="ghl63SZsgo9a_e7Ybc6T-10" value="" style="endArrow=none;html=1;rounded=0;strokeWidth=1;entryX=0;entryY=0.5;entryDx=0;entryDy=0;exitX=1;exitY=0.3333333333333333;exitDx=0;exitDy=0;exitPerimeter=0;" parent="1" source="lLel2rtWcx4q43UMJfzU-3" target="lLel2rtWcx4q43UMJfzU-6" edge="1"><mxGeometry width="50" height="50" relative="1" as="geometry"><mxPoint x="140" y="40" as="sourcePoint"/><mxPoint x="670" y="70" as="targetPoint"/></mxGeometry></mxCell><mxCell id="ghl63SZsgo9a_e7Ybc6T-11" value="" style="endArrow=none;html=1;rounded=0;strokeWidth=1;exitX=0;exitY=0.5;exitDx=0;exitDy=0;entryX=1;entryY=0.3333333333333333;entryDx=0;entryDy=0;entryPerimeter=0;" parent="1" source="lLel2rtWcx4q43UMJfzU-4" target="lLel2rtWcx4q43UMJfzU-3" edge="1"><mxGeometry width="50" height="50" relative="1" as="geometry"><mxPoint x="620" y="120" as="sourcePoint"/><mxPoint x="130" y="30" as="targetPoint"/></mxGeometry></mxCell><mxCell id="ghl63SZsgo9a_e7Ybc6T-12" value="" style="endArrow=none;html=1;rounded=0;strokeWidth=1;exitX=1;exitY=0.3333333333333333;exitDx=0;exitDy=0;exitPerimeter=0;entryX=0;entryY=1;entryDx=0;entryDy=0;" parent="1" source="lLel2rtWcx4q43UMJfzU-3" target="ghl63SZsgo9a_e7Ybc6T-1" edge="1"><mxGeometry width="50" height="50" relative="1" as="geometry"><mxPoint x="510" y="40" as="sourcePoint"/><mxPoint x="560" y="-10" as="targetPoint"/></mxGeometry></mxCell><mxCell id="ghl63SZsgo9a_e7Ybc6T-16" value="Keksausgeber" style="shape=umlActor;verticalLabelPosition=bottom;verticalAlign=top;html=1;outlineConnect=0;fillColor=none;" parent="1" vertex="1"><mxGeometry x="720" y="-20" width="30" height="60" as="geometry"/></mxCell><mxCell id="ghl63SZsgo9a_e7Ybc6T-17" value="" style="endArrow=none;html=1;rounded=0;strokeWidth=1;entryX=1;entryY=0.5;entryDx=0;entryDy=0;exitX=0;exitY=0.3333333333333333;exitDx=0;exitDy=0;exitPerimeter=0;" parent="1" source="ghl63SZsgo9a_e7Ybc6T-16" target="ghl63SZsgo9a_e7Ybc6T-5" edge="1"><mxGeometry width="50" height="50" relative="1" as="geometry"><mxPoint x="510" y="10" as="sourcePoint"/><mxPoint x="560" y="-40" as="targetPoint"/><Array as="points"/></mxGeometry></mxCell><mxCell id="c0h4RcrNZui7EozZj5rY-29" value="Mood Tracker" style="swimlane;verticalAlign=middle;swimlaneLine=0;fillColor=none;" parent="1" vertex="1"><mxGeometry x="280" y="200" width="400" height="230" as="geometry"><mxRectangle x="280" y="-210" width="110" height="23" as="alternateBounds"/></mxGeometry></mxCell><mxCell id="c0h4RcrNZui7EozZj5rY-31" value="set Mood" style="ellipse;whiteSpace=wrap;html=1;verticalAlign=middle;fillColor=none;" parent="c0h4RcrNZui7EozZj5rY-29" vertex="1"><mxGeometry x="30" y="130" width="120" height="80" as="geometry"/></mxCell><mxCell id="c0h4RcrNZui7EozZj5rY-33" value="Open MoodStats" style="ellipse;whiteSpace=wrap;html=1;verticalAlign=middle;fillColor=none;" parent="c0h4RcrNZui7EozZj5rY-29" vertex="1"><mxGeometry x="30" y="30" width="120" height="80" as="geometry"/></mxCell><mxCell id="c0h4RcrNZui7EozZj5rY-36" value="ask Mood" style="ellipse;whiteSpace=wrap;html=1;verticalAlign=middle;fillColor=none;" parent="c0h4RcrNZui7EozZj5rY-29" vertex="1"><mxGeometry x="250" y="130" width="120" height="80" as="geometry"/></mxCell><mxCell id="c0h4RcrNZui7EozZj5rY-38" value="" style="endArrow=block;html=1;rounded=0;strokeWidth=1;entryX=1;entryY=0.5;entryDx=0;entryDy=0;exitX=0;exitY=0.5;exitDx=0;exitDy=0;edgeStyle=orthogonalEdgeStyle;endFill=0;" parent="c0h4RcrNZui7EozZj5rY-29" edge="1"><mxGeometry width="50" height="50" relative="1" as="geometry"><mxPoint x="230" y="250" as="sourcePoint"/><mxPoint x="150" y="160" as="targetPoint"/></mxGeometry></mxCell><mxCell id="c0h4RcrNZui7EozZj5rY-39" value="" style="endArrow=block;html=1;rounded=0;strokeWidth=1;entryX=1;entryY=0.5;entryDx=0;entryDy=0;exitX=0;exitY=0.5;exitDx=0;exitDy=0;edgeStyle=orthogonalEdgeStyle;endFill=0;" parent="c0h4RcrNZui7EozZj5rY-29" edge="1"><mxGeometry width="50" height="50" relative="1" as="geometry"><mxPoint x="230" y="250" as="sourcePoint"/><mxPoint x="150" y="160" as="targetPoint"/></mxGeometry></mxCell><mxCell id="c0h4RcrNZui7EozZj5rY-40" value="&amp;lt;&amp;lt;extends&amp;gt;&amp;gt;" style="endArrow=open;html=1;rounded=0;strokeWidth=1;entryX=1;entryY=0.5;entryDx=0;entryDy=0;exitX=0;exitY=0.5;exitDx=0;exitDy=0;dashed=1;endFill=0;" parent="c0h4RcrNZui7EozZj5rY-29" source="c0h4RcrNZui7EozZj5rY-36" target="c0h4RcrNZui7EozZj5rY-31" edge="1"><mxGeometry width="50" height="50" relative="1" as="geometry"><mxPoint x="230" y="140" as="sourcePoint"/><mxPoint x="280" y="90" as="targetPoint"/></mxGeometry></mxCell><mxCell id="c0h4RcrNZui7EozZj5rY-41" value="&amp;lt;&amp;lt;extends&amp;gt;&amp;gt;" style="endArrow=open;html=1;rounded=0;dashed=1;strokeWidth=1;entryX=1;entryY=0.5;entryDx=0;entryDy=0;exitX=0;exitY=0.5;exitDx=0;exitDy=0;endFill=0;" parent="c0h4RcrNZui7EozZj5rY-29" edge="1"><mxGeometry width="50" height="50" relative="1" as="geometry"><mxPoint x="230" y="220" as="sourcePoint"/><mxPoint x="150" y="340" as="targetPoint"/></mxGeometry></mxCell><mxCell id="c0h4RcrNZui7EozZj5rY-47" value="cooldown" style="shape=note;whiteSpace=wrap;html=1;backgroundOutline=1;darkOpacity=0.05;size=12;" parent="c0h4RcrNZui7EozZj5rY-29" vertex="1"><mxGeometry x="270" y="40" width="80" height="40" as="geometry"/></mxCell><mxCell id="c0h4RcrNZui7EozZj5rY-42" value="" style="endArrow=none;html=1;rounded=0;strokeWidth=1;entryX=1;entryY=0.5;entryDx=0;entryDy=0;exitX=0;exitY=0.3333333333333333;exitDx=0;exitDy=0;exitPerimeter=0;" parent="1" source="ghl63SZsgo9a_e7Ybc6T-16" target="c0h4RcrNZui7EozZj5rY-36" edge="1"><mxGeometry width="50" height="50" relative="1" as="geometry"><mxPoint x="730" y="230" as="sourcePoint"/><mxPoint x="660" y="360" as="targetPoint"/><Array as="points"/></mxGeometry></mxCell><mxCell id="c0h4RcrNZui7EozZj5rY-43" value="cooldown" style="shape=note;whiteSpace=wrap;html=1;backgroundOutline=1;darkOpacity=0.05;size=12;" parent="1" vertex="1"><mxGeometry x="695" y="130" width="80" height="40" as="geometry"/></mxCell><mxCell id="c0h4RcrNZui7EozZj5rY-44" value="" style="endArrow=none;html=1;rounded=0;exitX=0;exitY=0.5;exitDx=0;exitDy=0;" parent="1" source="c0h4RcrNZui7EozZj5rY-33" edge="1"><mxGeometry width="50" height="50" relative="1" as="geometry"><mxPoint x="440" y="160" as="sourcePoint"/><mxPoint x="240" as="targetPoint"/></mxGeometry></mxCell><mxCell id="c0h4RcrNZui7EozZj5rY-45" value="" style="endArrow=none;html=1;rounded=0;exitX=0;exitY=0.5;exitDx=0;exitDy=0;entryX=1;entryY=0.3333333333333333;entryDx=0;entryDy=0;entryPerimeter=0;" parent="1" source="c0h4RcrNZui7EozZj5rY-31" target="lLel2rtWcx4q43UMJfzU-3" edge="1"><mxGeometry width="50" height="50" relative="1" as="geometry"><mxPoint x="320" y="280" as="sourcePoint"/><mxPoint x="250" y="10" as="targetPoint"/></mxGeometry></mxCell><mxCell id="c0h4RcrNZui7EozZj5rY-46" value="&amp;lt;&amp;lt;includes&amp;gt;&amp;gt;" style="endArrow=open;html=1;rounded=0;dashed=1;strokeWidth=1;endFill=0;entryX=0.5;entryY=0;entryDx=0;entryDy=0;" parent="1" target="c0h4RcrNZui7EozZj5rY-36" edge="1"><mxGeometry width="50" height="50" relative="1" as="geometry"><mxPoint x="430" y="130" as="sourcePoint"/><mxPoint x="500" y="280" as="targetPoint"/></mxGeometry></mxCell></root></mxGraphModel></diagram><diagram id="ZTu2RXF7-6wMjK4S5ILH" name="Mood Tracker"><mxGraphModel dx="870" dy="626" grid="1" gridSize="10" guides="1" tooltips="1" connect="1" arrows="1" fold="1" page="1" pageScale="1" pageWidth="827" pageHeight="1169" math="0" shadow="0"><root><mxCell id="Yr8047yu4ABNvxqqlwT5-0"/><mxCell id="Yr8047yu4ABNvxqqlwT5-1" parent="Yr8047yu4ABNvxqqlwT5-0"/></root></mxGraphModel></diagram><diagram id="6mqe1Au1FCOaG_fR-V1t" name="Gamification"><mxGraphModel dx="870" dy="626" grid="1" gridSize="10" guides="1" tooltips="1" connect="1" arrows="1" fold="1" page="1" pageScale="1" pageWidth="827" pageHeight="1169" math="0" shadow="0"><root><mxCell id="cvWd2n7vwvnULV8UlONm-0"/><mxCell id="cvWd2n7vwvnULV8UlONm-1" parent="cvWd2n7vwvnULV8UlONm-0"/></root></mxGraphModel></diagram></mxfile>